<svg xmlns="http://www.w3.org/2000/svg" xmlns:xlink="http://www.w3.org/1999/xlink" viewBox="0,0,256,256" width="128px" height="128px" fill-rule="nonzero"><g transform="translate(-12.8,-12.8) scale(1.1,1.1)"><g fill="#c850f2" fill-rule="nonzero" stroke="none" stroke-width="1" stroke-linecap="butt" stroke-linejoin="miter" stroke-miterlimit="10" stroke-dasharray="" stroke-dashoffset="0" font-family="none" font-weight="none" font-size="none" text-anchor="none" style="mix-blend-mode: normal"><g transform="scale(2,2)"><path d="M64,6.05078c-14.85,0 -29.7,5.64922 -41,16.94922c-11,10.9 -17,25.5 -17,41c0,15.5 6,30.1 17,41c11.3,11.3 26.2,17 41,17c14.9,0 29.7,-5.7 41,-17c11,-11 17,-25.5 17,-41c0,-15.5 -6,-30.1 -17,-41c-11.3,-11.3 -26.15,-16.94922 -41,-16.94922zM64,12c13.3,0 26.60078,5.09922 36.80078,15.19922c9.8,9.9 15.19922,22.90078 15.19922,36.80078c0,13.9 -5.39922,26.90078 -15.19922,36.80078c-20.3,20.3 -53.3,20.3 -73.5,0c-9.9,-9.9 -15.30078,-22.90078 -15.30078,-36.80078c0,-13.9 5.39922,-26.90078 15.19922,-36.80078c10.2,-10.1 23.50078,-15.19922 36.80078,-15.19922zM58.96289,46c-0.7625,0 -1.5125,0.30039 -2.0625,0.90039l-15,15c-1.2,1.2 -1.2,3.09922 0,4.19922l15,15c0.6,0.6 1.39961,0.90039 2.09961,0.90039c0.7,0 1.49961,-0.30039 2.09961,-0.90039c1.2,-1.2 1.2,-3.09922 0,-4.19922l-9.90039,-9.90039h30.80078c1.7,0 3,-1.3 3,-3c0,-1.7 -1.3,-3 -3,-3h-30.80078l9.90039,-9.90039c1.2,-1.2 1.2,-3.09922 0,-4.19922c-0.6,-0.6 -1.37422,-0.90039 -2.13672,-0.90039z"></path></g></g></g></svg>